M48
; DRILL file {KiCad 9.0.7} date 2026-02-26T14:42:26+0900
; FORMAT={-:-/ absolute / metric / decimal}
; #@! TF.CreationDate,2026-02-26T14:42:26+09:00
; #@! TF.GenerationSoftware,Kicad,Pcbnew,9.0.7
; #@! TF.FileFunction,MixedPlating,1,2
FMAT,2
METRIC
; #@! TA.AperFunction,Plated,PTH,ComponentDrill
T1C0.800
; #@! TA.AperFunction,Plated,PTH,ComponentDrill
T2C0.900
; #@! TA.AperFunction,Plated,PTH,ComponentDrill
T3C0.950
; #@! TA.AperFunction,Plated,PTH,ComponentDrill
T4C1.000
; #@! TA.AperFunction,Plated,PTH,ComponentDrill
T5C1.300
; #@! TA.AperFunction,Plated,PTH,ComponentDrill
T6C1.400
; #@! TA.AperFunction,NonPlated,NPTH,ComponentDrill
T7C3.200
%
G90
G05
T1
X15.0Y55.12
X15.0Y39.88
X18.0Y60.5
X20.54Y60.5
X21.0Y69.4
X21.0Y64.0
X23.5Y69.4
X23.5Y64.0
X25.455Y60.5
X26.0Y69.4
X26.0Y64.0
X27.995Y60.5
X29.96Y63.0
X32.0Y53.12
X32.0Y37.88
X32.5Y63.0
X34.5Y59.04
X34.5Y56.5
X35.0Y51.12
X35.0Y35.88
X35.04Y63.0
X37.0Y62.0
X39.0Y58.04
X39.0Y55.5
X39.0Y36.0
X39.0Y33.46
X39.0Y12.0
X39.0Y9.46
X39.54Y62.0
T2
X17.96Y56.5
X20.5Y56.5
X23.5Y56.5
X26.04Y56.5
X29.23Y56.5
X31.77Y56.5
T3
X32.5Y69.0
X35.0Y69.0
X37.5Y69.0
T4
X42.0Y57.5
X42.0Y34.0
X42.0Y10.5
X44.54Y57.5
X44.54Y34.0
X44.54Y10.5
T5
X5.0Y51.16
X5.0Y46.08
X5.0Y41.0
X5.0Y27.0
X5.0Y21.92
X5.0Y16.84
X42.0Y50.8
X42.0Y45.72
X42.0Y40.64
X42.0Y27.16
X42.0Y22.08
X42.0Y17.0
T6
X2.5Y52.8
X2.5Y47.7
X2.5Y42.7
X2.5Y28.7
X2.5Y23.6
X2.5Y18.5
X7.5Y52.8
X7.5Y47.7
X7.5Y42.7
X7.5Y28.7
X7.5Y23.6
X7.5Y18.5
X20.75Y51.0
X20.75Y46.8
X20.75Y42.6
X20.75Y38.4
X20.75Y34.2
X20.75Y30.0
X20.75Y25.8
X20.75Y21.6
X20.75Y17.4
X20.75Y13.2
X20.75Y9.0
X20.75Y4.8
X26.25Y51.0
X26.25Y46.8
X26.25Y42.6
X26.25Y38.4
X26.25Y34.2
X26.25Y30.0
X26.25Y25.8
X26.25Y21.6
X26.25Y17.4
X26.25Y13.2
X26.25Y9.0
X26.25Y4.8
X39.5Y49.1
X39.5Y44.0
X39.5Y38.94
X39.5Y25.4
X39.5Y20.4
X39.5Y15.3
X44.5Y49.1
X44.5Y44.0
X44.5Y38.94
X44.5Y25.4
X44.5Y20.4
X44.5Y15.3
T7
X3.0Y69.0
X3.0Y3.0
X44.0Y69.0
X44.0Y3.0
M30
