G04 #@! TF.GenerationSoftware,KiCad,Pcbnew,9.0.7*
G04 #@! TF.CreationDate,2026-02-26T14:42:15+09:00*
G04 #@! TF.ProjectId,SFX-BO-01,5346582d-424f-42d3-9031-2e6b69636164,0.1.0*
G04 #@! TF.SameCoordinates,PX7bfa480PY7bfa480*
G04 #@! TF.FileFunction,Soldermask,Top*
G04 #@! TF.FilePolarity,Negative*
%FSLAX46Y46*%
G04 Gerber Fmt 4.6, Leading zero omitted, Abs format (unit mm)*
G04 Created by KiCad (PCBNEW 9.0.7) date 2026-02-26 14:42:15*
%MOMM*%
%LPD*%
G01*
G04 APERTURE LIST*
G04 Aperture macros list*
%AMRoundRect*
0 Rectangle with rounded corners*
0 $1 Rounding radius*
0 $2 $3 $4 $5 $6 $7 $8 $9 X,Y pos of 4 corners*
0 Add a 4 corners polygon primitive as box body*
4,1,4,$2,$3,$4,$5,$6,$7,$8,$9,$2,$3,0*
0 Add four circle primitives for the rounded corners*
1,1,$1+$1,$2,$3*
1,1,$1+$1,$4,$5*
1,1,$1+$1,$6,$7*
1,1,$1+$1,$8,$9*
0 Add four rect primitives between the rounded corners*
20,1,$1+$1,$2,$3,$4,$5,0*
20,1,$1+$1,$4,$5,$6,$7,0*
20,1,$1+$1,$6,$7,$8,$9,0*
20,1,$1+$1,$8,$9,$2,$3,0*%
G04 Aperture macros list end*
%ADD10R,1.800000X1.800000*%
%ADD11C,1.800000*%
%ADD12C,3.200000*%
%ADD13RoundRect,0.250000X-1.050000X1.050000X-1.050000X-1.050000X1.050000X-1.050000X1.050000X1.050000X0*%
%ADD14C,2.600000*%
%ADD15R,1.400000X1.600000*%
%ADD16O,1.400000X1.600000*%
%ADD17RoundRect,0.250000X1.050000X-1.050000X1.050000X1.050000X-1.050000X1.050000X-1.050000X-1.050000X0*%
%ADD18R,1.700000X1.700000*%
%ADD19O,1.700000X1.700000*%
%ADD20RoundRect,0.250001X-1.399999X1.099999X-1.399999X-1.099999X1.399999X-1.099999X1.399999X1.099999X0*%
%ADD21O,3.300000X2.700000*%
%ADD22RoundRect,0.250000X-0.600000X-0.725000X0.600000X-0.725000X0.600000X0.725000X-0.600000X0.725000X0*%
%ADD23O,1.700000X1.950000*%
%ADD24C,1.600000*%
G04 APERTURE END LIST*
D10*
X26000000Y64000000D03*
D11*
X23500000Y64000000D03*
X21000000Y64000000D03*
X26000000Y69400000D03*
X23500000Y69400000D03*
X21000000Y69400000D03*
D12*
X39500000Y49100000D03*
X44500000Y49100000D03*
X39500000Y15300000D03*
X44500000Y15300000D03*
X44000000Y3000000D03*
D13*
X5000000Y51160000D03*
D14*
X5000000Y46080000D03*
X5000000Y41000000D03*
D12*
X2500000Y52800000D03*
X7500000Y52800000D03*
D15*
X29960000Y63000000D03*
D16*
X32500000Y63000000D03*
X35040000Y63000000D03*
D12*
X2500000Y47700000D03*
X7500000Y47700000D03*
D17*
X42000000Y40640000D03*
D14*
X42000000Y45720000D03*
X42000000Y50800000D03*
D12*
X44000000Y69000000D03*
D10*
X31770000Y56500000D03*
D11*
X29230000Y56500000D03*
D17*
X42000000Y17000000D03*
D14*
X42000000Y22080000D03*
X42000000Y27160000D03*
D18*
X42000000Y57500000D03*
D19*
X44540000Y57500000D03*
D12*
X39500000Y44000000D03*
X44500000Y44000000D03*
D10*
X23500000Y56500000D03*
D11*
X26040000Y56500000D03*
D13*
X5000000Y27000000D03*
D14*
X5000000Y21920000D03*
X5000000Y16840000D03*
D18*
X42000000Y34000000D03*
D19*
X44540000Y34000000D03*
D12*
X3000000Y69000000D03*
X39500000Y38940000D03*
X44500000Y38940000D03*
X2500000Y18500000D03*
X7500000Y18500000D03*
D18*
X42000000Y10500000D03*
D19*
X44540000Y10500000D03*
D12*
X2500000Y23600000D03*
X7500000Y23600000D03*
D20*
X26250000Y51000000D03*
D21*
X26250000Y46800000D03*
X26250000Y42600000D03*
X26250000Y38400000D03*
X26250000Y34200000D03*
X26250000Y30000000D03*
X26250000Y25800000D03*
X26250000Y21600000D03*
X26250000Y17400000D03*
X26250000Y13200000D03*
X26250000Y9000000D03*
X26250000Y4800000D03*
X20750000Y51000000D03*
X20750000Y46800000D03*
X20750000Y42600000D03*
X20750000Y38400000D03*
X20750000Y34200000D03*
X20750000Y30000000D03*
X20750000Y25800000D03*
X20750000Y21600000D03*
X20750000Y17400000D03*
X20750000Y13200000D03*
X20750000Y9000000D03*
X20750000Y4800000D03*
D12*
X2500000Y42700000D03*
X7500000Y42700000D03*
X39500000Y20400000D03*
X44500000Y20400000D03*
D22*
X32500000Y69000000D03*
D23*
X35000000Y69000000D03*
X37500000Y69000000D03*
D12*
X3000000Y3000000D03*
D10*
X17960000Y56500000D03*
D11*
X20500000Y56500000D03*
D12*
X2500000Y28700000D03*
X7500000Y28700000D03*
X39500000Y25400000D03*
X44500000Y25400000D03*
D24*
X39540000Y62000000D03*
X37000000Y62000000D03*
X35000000Y35880000D03*
X35000000Y51120000D03*
X15000000Y55120000D03*
X15000000Y39880000D03*
X25455000Y60500000D03*
X27995000Y60500000D03*
X34500000Y56500000D03*
X34500000Y59040000D03*
X18000000Y60500000D03*
X20540000Y60500000D03*
X32000000Y53120000D03*
X32000000Y37880000D03*
X39000000Y55500000D03*
X39000000Y58040000D03*
X39000000Y12000000D03*
X39000000Y9460000D03*
X39000000Y36000000D03*
X39000000Y33460000D03*
M02*
