G04 #@! TF.GenerationSoftware,KiCad,Pcbnew,9.0.7*
G04 #@! TF.CreationDate,2026-03-02T11:57:28+09:00*
G04 #@! TF.ProjectId,AE-RELAY4-BOARD_SATA-Ctrl_A,41452d52-454c-4415-9934-2d424f415244,0.1.0*
G04 #@! TF.SameCoordinates,PX5f5e100PY7bfa480*
G04 #@! TF.FileFunction,Legend,Bot*
G04 #@! TF.FilePolarity,Positive*
%FSLAX46Y46*%
G04 Gerber Fmt 4.6, Leading zero omitted, Abs format (unit mm)*
G04 Created by KiCad (PCBNEW 9.0.7) date 2026-03-02 11:57:28*
%MOMM*%
%LPD*%
G01*
G04 APERTURE LIST*
%ADD10C,0.150000*%
%ADD11C,0.120000*%
G04 APERTURE END LIST*
D10*
X40109523Y1165181D02*
X40109523Y450896D01*
X40109523Y450896D02*
X40157142Y308039D01*
X40157142Y308039D02*
X40252380Y212800D01*
X40252380Y212800D02*
X40395237Y165181D01*
X40395237Y165181D02*
X40490475Y165181D01*
X39109523Y165181D02*
X39680951Y165181D01*
X39395237Y165181D02*
X39395237Y1165181D01*
X39395237Y1165181D02*
X39490475Y1022324D01*
X39490475Y1022324D02*
X39585713Y927086D01*
X39585713Y927086D02*
X39680951Y879467D01*
X38252380Y1165181D02*
X38442856Y1165181D01*
X38442856Y1165181D02*
X38538094Y1117562D01*
X38538094Y1117562D02*
X38585713Y1069943D01*
X38585713Y1069943D02*
X38680951Y927086D01*
X38680951Y927086D02*
X38728570Y736610D01*
X38728570Y736610D02*
X38728570Y355658D01*
X38728570Y355658D02*
X38680951Y260420D01*
X38680951Y260420D02*
X38633332Y212800D01*
X38633332Y212800D02*
X38538094Y165181D01*
X38538094Y165181D02*
X38347618Y165181D01*
X38347618Y165181D02*
X38252380Y212800D01*
X38252380Y212800D02*
X38204761Y260420D01*
X38204761Y260420D02*
X38157142Y355658D01*
X38157142Y355658D02*
X38157142Y593753D01*
X38157142Y593753D02*
X38204761Y688991D01*
X38204761Y688991D02*
X38252380Y736610D01*
X38252380Y736610D02*
X38347618Y784229D01*
X38347618Y784229D02*
X38538094Y784229D01*
X38538094Y784229D02*
X38633332Y736610D01*
X38633332Y736610D02*
X38680951Y688991D01*
X38680951Y688991D02*
X38728570Y593753D01*
X29809523Y1185181D02*
X29809523Y470896D01*
X29809523Y470896D02*
X29857142Y328039D01*
X29857142Y328039D02*
X29952380Y232800D01*
X29952380Y232800D02*
X30095237Y185181D01*
X30095237Y185181D02*
X30190475Y185181D01*
X28809523Y185181D02*
X29380951Y185181D01*
X29095237Y185181D02*
X29095237Y1185181D01*
X29095237Y1185181D02*
X29190475Y1042324D01*
X29190475Y1042324D02*
X29285713Y947086D01*
X29285713Y947086D02*
X29380951Y899467D01*
X28476189Y1185181D02*
X27809523Y1185181D01*
X27809523Y1185181D02*
X28238094Y185181D01*
D11*
X37920000Y1620000D02*
X39300000Y1620000D01*
X37920000Y3000000D02*
X37920000Y1620000D01*
X37920000Y4270000D02*
X37920000Y19620000D01*
X37920000Y4270000D02*
X40680000Y4270000D01*
X37920000Y19620000D02*
X40680000Y19620000D01*
X40680000Y4270000D02*
X40680000Y19620000D01*
X27620000Y1640000D02*
X29000000Y1640000D01*
X27620000Y3020000D02*
X27620000Y1640000D01*
X27620000Y4290000D02*
X27620000Y19640000D01*
X27620000Y4290000D02*
X30380000Y4290000D01*
X27620000Y19640000D02*
X30380000Y19640000D01*
X30380000Y4290000D02*
X30380000Y19640000D01*
M02*
