G04 #@! TF.GenerationSoftware,KiCad,Pcbnew,9.0.7*
G04 #@! TF.CreationDate,2026-03-02T11:57:27+09:00*
G04 #@! TF.ProjectId,AE-RELAY4-BOARD_SATA-Ctrl_A,41452d52-454c-4415-9934-2d424f415244,0.1.0*
G04 #@! TF.SameCoordinates,PX5f5e100PY7bfa480*
G04 #@! TF.FileFunction,Copper,L1,Top*
G04 #@! TF.FilePolarity,Positive*
%FSLAX46Y46*%
G04 Gerber Fmt 4.6, Leading zero omitted, Abs format (unit mm)*
G04 Created by KiCad (PCBNEW 9.0.7) date 2026-03-02 11:57:27*
%MOMM*%
%LPD*%
G01*
G04 APERTURE LIST*
G04 Aperture macros list*
%AMRoundRect*
0 Rectangle with rounded corners*
0 $1 Rounding radius*
0 $2 $3 $4 $5 $6 $7 $8 $9 X,Y pos of 4 corners*
0 Add a 4 corners polygon primitive as box body*
4,1,4,$2,$3,$4,$5,$6,$7,$8,$9,$2,$3,0*
0 Add four circle primitives for the rounded corners*
1,1,$1+$1,$2,$3*
1,1,$1+$1,$4,$5*
1,1,$1+$1,$6,$7*
1,1,$1+$1,$8,$9*
0 Add four rect primitives between the rounded corners*
20,1,$1+$1,$2,$3,$4,$5,0*
20,1,$1+$1,$4,$5,$6,$7,0*
20,1,$1+$1,$6,$7,$8,$9,0*
20,1,$1+$1,$8,$9,$2,$3,0*%
G04 Aperture macros list end*
G04 #@! TA.AperFunction,ComponentPad*
%ADD10RoundRect,0.250000X0.550000X-0.550000X0.550000X0.550000X-0.550000X0.550000X-0.550000X-0.550000X0*%
G04 #@! TD*
G04 #@! TA.AperFunction,ComponentPad*
%ADD11C,1.600000*%
G04 #@! TD*
G04 #@! TA.AperFunction,ComponentPad*
%ADD12C,1.800000*%
G04 #@! TD*
G04 #@! TA.AperFunction,ComponentPad*
%ADD13C,1.700000*%
G04 #@! TD*
G04 #@! TA.AperFunction,ComponentPad*
%ADD14R,1.070000X2.000000*%
G04 #@! TD*
G04 #@! TA.AperFunction,ComponentPad*
%ADD15O,1.070000X2.000000*%
G04 #@! TD*
G04 #@! TA.AperFunction,ComponentPad*
%ADD16C,2.000000*%
G04 #@! TD*
G04 #@! TA.AperFunction,ComponentPad*
%ADD17R,1.800000X1.800000*%
G04 #@! TD*
G04 #@! TA.AperFunction,ComponentPad*
%ADD18R,1.700000X1.700000*%
G04 #@! TD*
G04 #@! TA.AperFunction,ComponentPad*
%ADD19RoundRect,0.250000X1.050000X1.050000X-1.050000X1.050000X-1.050000X-1.050000X1.050000X-1.050000X0*%
G04 #@! TD*
G04 #@! TA.AperFunction,ComponentPad*
%ADD20C,2.600000*%
G04 #@! TD*
G04 #@! TA.AperFunction,ComponentPad*
%ADD21R,1.800000X1.700000*%
G04 #@! TD*
G04 APERTURE END LIST*
D10*
X58000000Y6190000D03*
D11*
X58000000Y13810000D03*
D12*
X85100000Y33800000D03*
X74940000Y33800000D03*
X14000000Y11700000D03*
X14000000Y19320000D03*
D13*
X41620000Y2980000D03*
X41620000Y5520000D03*
X41620000Y8060000D03*
X41620000Y10600000D03*
X41620000Y13140000D03*
X41620000Y15680000D03*
X41620000Y18220000D03*
X26380000Y18220000D03*
X26380000Y15680000D03*
X26380000Y13140000D03*
X26380000Y10600000D03*
X26380000Y8060000D03*
X26380000Y5520000D03*
X26380000Y2980000D03*
D14*
X84200000Y6300000D03*
D15*
X82930000Y6300000D03*
X81660000Y6300000D03*
X80390000Y6300000D03*
X79120000Y6300000D03*
X77850000Y6300000D03*
X76580000Y6300000D03*
X75310000Y6300000D03*
X74040000Y6300000D03*
X72770000Y6300000D03*
X71500000Y6300000D03*
X70230000Y6300000D03*
X68960000Y6300000D03*
X67690000Y6300000D03*
X66420000Y6300000D03*
D16*
X88040000Y6300000D03*
X62580000Y6300000D03*
D12*
X50100000Y16100000D03*
X47560000Y16100000D03*
D17*
X76030000Y37500000D03*
D12*
X76030000Y40040000D03*
X78570000Y37500000D03*
X78570000Y40040000D03*
X81110000Y37500000D03*
X81110000Y40040000D03*
X83650000Y37500000D03*
X83650000Y40040000D03*
X86190000Y37500000D03*
X86190000Y40040000D03*
X88730000Y37500000D03*
X88730000Y40040000D03*
D17*
X69730000Y37500000D03*
D12*
X69730000Y40040000D03*
X72270000Y37500000D03*
X72270000Y40040000D03*
X85100000Y30800000D03*
X74940000Y30800000D03*
D18*
X21590000Y8800000D03*
D13*
X19050000Y8800000D03*
X16510000Y8800000D03*
X13970000Y8800000D03*
X11430000Y8800000D03*
X8890000Y8800000D03*
D12*
X17000000Y11700000D03*
X17000000Y19320000D03*
D17*
X13350000Y43850000D03*
D12*
X15890000Y43850000D03*
X60900000Y27800000D03*
X50740000Y27800000D03*
X38700000Y24800000D03*
X28540000Y24800000D03*
X20000000Y11700000D03*
X20000000Y19320000D03*
X38700000Y27800000D03*
X28540000Y27800000D03*
X50100000Y13100000D03*
X47560000Y13100000D03*
D17*
X58000000Y3500000D03*
D12*
X55460000Y3500000D03*
X11000000Y11700000D03*
X11000000Y19320000D03*
X60900000Y30800000D03*
X50740000Y30800000D03*
D17*
X53270000Y37500000D03*
D12*
X53270000Y40040000D03*
X55810000Y37500000D03*
X55810000Y40040000D03*
X58350000Y37500000D03*
X58350000Y40040000D03*
X60890000Y37500000D03*
X60890000Y40040000D03*
X63430000Y37500000D03*
X63430000Y40040000D03*
X65970000Y37500000D03*
X65970000Y40040000D03*
X38700000Y33800000D03*
X28540000Y33800000D03*
D17*
X8270000Y37500000D03*
D12*
X8270000Y40040000D03*
X10810000Y37500000D03*
X10810000Y40040000D03*
X13350000Y37500000D03*
X13350000Y40040000D03*
X15890000Y37500000D03*
X15890000Y40040000D03*
X18430000Y37500000D03*
X18430000Y40040000D03*
X20970000Y37500000D03*
X20970000Y40040000D03*
D19*
X73540000Y46000000D03*
D20*
X68460000Y46000000D03*
D19*
X28540000Y46000000D03*
D20*
X23460000Y46000000D03*
D12*
X60900000Y24800000D03*
X50740000Y24800000D03*
D17*
X81110000Y43850000D03*
D12*
X83650000Y43850000D03*
D17*
X24730000Y37500000D03*
D12*
X24730000Y40040000D03*
X27270000Y37500000D03*
X27270000Y40040000D03*
D17*
X36110000Y43850000D03*
D12*
X38650000Y43850000D03*
D18*
X44700000Y18200000D03*
D13*
X44700000Y15660000D03*
X44700000Y13120000D03*
X44700000Y10580000D03*
D12*
X81500000Y24800000D03*
X71340000Y24800000D03*
D17*
X31030000Y37500000D03*
D12*
X31030000Y40040000D03*
X33570000Y37500000D03*
X33570000Y40040000D03*
X36110000Y37500000D03*
X36110000Y40040000D03*
X38650000Y37500000D03*
X38650000Y40040000D03*
X41190000Y37500000D03*
X41190000Y40040000D03*
X43730000Y37500000D03*
X43730000Y40040000D03*
X60900000Y33800000D03*
X50740000Y33800000D03*
X38700000Y30800000D03*
X28540000Y30800000D03*
D17*
X58350000Y43850000D03*
D12*
X60890000Y43850000D03*
X81500000Y27800000D03*
X71340000Y27800000D03*
D21*
X39300000Y3000000D03*
D12*
X39300000Y5540000D03*
X39300000Y8080000D03*
X39300000Y10620000D03*
X39300000Y13160000D03*
X39300000Y15700000D03*
X39300000Y18240000D03*
D21*
X29000000Y3020000D03*
D12*
X29000000Y5560000D03*
X29000000Y8100000D03*
X29000000Y10640000D03*
X29000000Y13180000D03*
X29000000Y15720000D03*
X29000000Y18260000D03*
M02*
