M48
; DRILL file {KiCad 9.0.7} date 2026-03-02T11:57:31+0900
; FORMAT={-:-/ absolute / metric / decimal}
; #@! TF.CreationDate,2026-03-02T11:57:31+09:00
; #@! TF.GenerationSoftware,Kicad,Pcbnew,9.0.7
; #@! TF.FileFunction,MixedPlating,1,2
FMAT,2
METRIC
; #@! TA.AperFunction,Plated,PTH,ComponentDrill
T1C0.800
; #@! TA.AperFunction,Plated,PTH,ComponentDrill
T2C0.950
; #@! TA.AperFunction,Plated,PTH,ComponentDrill
T3C1.000
; #@! TA.AperFunction,Plated,PTH,ComponentDrill
T4C1.200
; #@! TA.AperFunction,Plated,PTH,ComponentDrill
T5C1.300
; #@! TA.AperFunction,NonPlated,NPTH,ComponentDrill
T6C3.200
%
G90
G05
T1
X11.0Y19.32
X11.0Y11.7
X14.0Y19.32
X14.0Y11.7
X17.0Y19.32
X17.0Y11.7
X20.0Y19.32
X20.0Y11.7
X26.38Y18.22
X26.38Y15.68
X26.38Y13.14
X26.38Y10.6
X26.38Y8.06
X26.38Y5.52
X26.38Y2.98
X28.54Y33.8
X28.54Y30.8
X28.54Y27.8
X28.54Y24.8
X38.7Y33.8
X38.7Y30.8
X38.7Y27.8
X38.7Y24.8
X41.62Y18.22
X41.62Y15.68
X41.62Y13.14
X41.62Y10.6
X41.62Y8.06
X41.62Y5.52
X41.62Y2.98
X47.56Y16.1
X47.56Y13.1
X50.1Y16.1
X50.1Y13.1
X50.74Y33.8
X50.74Y30.8
X50.74Y27.8
X50.74Y24.8
X58.0Y13.81
X58.0Y6.19
X60.9Y33.8
X60.9Y30.8
X60.9Y27.8
X60.9Y24.8
X66.42Y6.3
X67.69Y6.3
X68.96Y6.3
X70.23Y6.3
X71.34Y27.8
X71.34Y24.8
X71.5Y6.3
X72.77Y6.3
X74.04Y6.3
X74.94Y33.8
X74.94Y30.8
X75.31Y6.3
X76.58Y6.3
X77.85Y6.3
X79.12Y6.3
X80.39Y6.3
X81.5Y27.8
X81.5Y24.8
X81.66Y6.3
X82.93Y6.3
X84.2Y6.3
X85.1Y33.8
X85.1Y30.8
T2
X8.27Y40.04
X8.27Y37.5
X10.81Y40.04
X10.81Y37.5
X13.35Y43.85
X13.35Y40.04
X13.35Y37.5
X15.89Y43.85
X15.89Y40.04
X15.89Y37.5
X18.43Y40.04
X18.43Y37.5
X20.97Y40.04
X20.97Y37.5
X24.73Y40.04
X24.73Y37.5
X27.27Y40.04
X27.27Y37.5
X29.0Y18.26
X29.0Y15.72
X29.0Y13.18
X29.0Y10.64
X29.0Y8.1
X29.0Y5.56
X29.0Y3.02
X31.03Y40.04
X31.03Y37.5
X33.57Y40.04
X33.57Y37.5
X36.11Y43.85
X36.11Y40.04
X36.11Y37.5
X38.65Y43.85
X38.65Y40.04
X38.65Y37.5
X39.3Y18.24
X39.3Y15.7
X39.3Y13.16
X39.3Y10.62
X39.3Y8.08
X39.3Y5.54
X39.3Y3.0
X41.19Y40.04
X41.19Y37.5
X43.73Y40.04
X43.73Y37.5
X53.27Y40.04
X53.27Y37.5
X55.46Y3.5
X55.81Y40.04
X55.81Y37.5
X58.0Y3.5
X58.35Y43.85
X58.35Y40.04
X58.35Y37.5
X60.89Y43.85
X60.89Y40.04
X60.89Y37.5
X63.43Y40.04
X63.43Y37.5
X65.97Y40.04
X65.97Y37.5
X69.73Y40.04
X69.73Y37.5
X72.27Y40.04
X72.27Y37.5
X76.03Y40.04
X76.03Y37.5
X78.57Y40.04
X78.57Y37.5
X81.11Y43.85
X81.11Y40.04
X81.11Y37.5
X83.65Y43.85
X83.65Y40.04
X83.65Y37.5
X86.19Y40.04
X86.19Y37.5
X88.73Y40.04
X88.73Y37.5
T3
X8.89Y8.8
X11.43Y8.8
X13.97Y8.8
X16.51Y8.8
X19.05Y8.8
X21.59Y8.8
X44.7Y18.2
X44.7Y15.66
X44.7Y13.12
X44.7Y10.58
T4
X62.58Y6.3
X88.04Y6.3
T5
X23.46Y46.0
X28.54Y46.0
X68.46Y46.0
X73.54Y46.0
T6
X3.5Y46.5
X3.5Y3.5
X48.5Y46.5
X48.5Y3.5
X93.5Y46.5
X93.5Y3.5
M30
