%TF.GenerationSoftware,KiCad,Pcbnew,8.0.8*%
%TF.CreationDate,2025-04-14T16:09:26+09:00*%
%TF.ProjectId,EVBPusher_nano,45564250-7573-4686-9572-5f6e616e6f2e,0.1*%
%TF.SameCoordinates,PX5f5e100PY8f0d180*%
%TF.FileFunction,Legend,Top*%
%TF.FilePolarity,Positive*%
%FSLAX46Y46*%
G04 Gerber Fmt 4.6, Leading zero omitted, Abs format (unit mm)*
G04 Created by KiCad (PCBNEW 8.0.8) date 2025-04-14 16:09:26*
%MOMM*%
%LPD*%
G01*
G04 APERTURE LIST*
%ADD10C,0.150000*%
%ADD11C,0.120000*%
G04 APERTURE END LIST*
D10*
X25692019Y12025334D02*
X25215828Y11692001D01*
X25692019Y11453906D02*
X24692019Y11453906D01*
X24692019Y11453906D02*
X24692019Y11834858D01*
X24692019Y11834858D02*
X24739638Y11930096D01*
X24739638Y11930096D02*
X24787257Y11977715D01*
X24787257Y11977715D02*
X24882495Y12025334D01*
X24882495Y12025334D02*
X25025352Y12025334D01*
X25025352Y12025334D02*
X25120590Y11977715D01*
X25120590Y11977715D02*
X25168209Y11930096D01*
X25168209Y11930096D02*
X25215828Y11834858D01*
X25215828Y11834858D02*
X25215828Y11453906D01*
X25692019Y12977715D02*
X25692019Y12406287D01*
X25692019Y12692001D02*
X24692019Y12692001D01*
X24692019Y12692001D02*
X24834876Y12596763D01*
X24834876Y12596763D02*
X24930114Y12501525D01*
X24930114Y12501525D02*
X24977733Y12406287D01*
X4401666Y54854181D02*
X4401666Y54139896D01*
X4401666Y54139896D02*
X4354047Y53997039D01*
X4354047Y53997039D02*
X4258809Y53901800D01*
X4258809Y53901800D02*
X4115952Y53854181D01*
X4115952Y53854181D02*
X4020714Y53854181D01*
X5020714Y54425610D02*
X4925476Y54473229D01*
X4925476Y54473229D02*
X4877857Y54520848D01*
X4877857Y54520848D02*
X4830238Y54616086D01*
X4830238Y54616086D02*
X4830238Y54663705D01*
X4830238Y54663705D02*
X4877857Y54758943D01*
X4877857Y54758943D02*
X4925476Y54806562D01*
X4925476Y54806562D02*
X5020714Y54854181D01*
X5020714Y54854181D02*
X5211190Y54854181D01*
X5211190Y54854181D02*
X5306428Y54806562D01*
X5306428Y54806562D02*
X5354047Y54758943D01*
X5354047Y54758943D02*
X5401666Y54663705D01*
X5401666Y54663705D02*
X5401666Y54616086D01*
X5401666Y54616086D02*
X5354047Y54520848D01*
X5354047Y54520848D02*
X5306428Y54473229D01*
X5306428Y54473229D02*
X5211190Y54425610D01*
X5211190Y54425610D02*
X5020714Y54425610D01*
X5020714Y54425610D02*
X4925476Y54377991D01*
X4925476Y54377991D02*
X4877857Y54330372D01*
X4877857Y54330372D02*
X4830238Y54235134D01*
X4830238Y54235134D02*
X4830238Y54044658D01*
X4830238Y54044658D02*
X4877857Y53949420D01*
X4877857Y53949420D02*
X4925476Y53901800D01*
X4925476Y53901800D02*
X5020714Y53854181D01*
X5020714Y53854181D02*
X5211190Y53854181D01*
X5211190Y53854181D02*
X5306428Y53901800D01*
X5306428Y53901800D02*
X5354047Y53949420D01*
X5354047Y53949420D02*
X5401666Y54044658D01*
X5401666Y54044658D02*
X5401666Y54235134D01*
X5401666Y54235134D02*
X5354047Y54330372D01*
X5354047Y54330372D02*
X5306428Y54377991D01*
X5306428Y54377991D02*
X5211190Y54425610D01*
X38167605Y55931708D02*
X38066590Y55898036D01*
X38066590Y55898036D02*
X37931903Y55898036D01*
X37931903Y55898036D02*
X37729872Y55898036D01*
X37729872Y55898036D02*
X37628857Y55864364D01*
X37628857Y55864364D02*
X37561514Y55797021D01*
X37763544Y55662334D02*
X37662529Y55628662D01*
X37662529Y55628662D02*
X37527842Y55628662D01*
X37527842Y55628662D02*
X37359483Y55729677D01*
X37359483Y55729677D02*
X37123781Y55965380D01*
X37123781Y55965380D02*
X37022766Y56133738D01*
X37022766Y56133738D02*
X37022766Y56268425D01*
X37022766Y56268425D02*
X37056437Y56369441D01*
X37056437Y56369441D02*
X37191124Y56504128D01*
X37191124Y56504128D02*
X37292140Y56537799D01*
X37292140Y56537799D02*
X37426827Y56537799D01*
X37426827Y56537799D02*
X37595185Y56436784D01*
X37595185Y56436784D02*
X37830888Y56201082D01*
X37830888Y56201082D02*
X37931903Y56032723D01*
X37931903Y56032723D02*
X37931903Y55898036D01*
X37931903Y55898036D02*
X37898231Y55797021D01*
X37898231Y55797021D02*
X37763544Y55662334D01*
X38201277Y57042876D02*
X38672681Y56571471D01*
X37763544Y57143891D02*
X38100262Y56470456D01*
X38100262Y56470456D02*
X38537994Y56908189D01*
X33849605Y55931708D02*
X33748590Y55898036D01*
X33748590Y55898036D02*
X33613903Y55898036D01*
X33613903Y55898036D02*
X33411872Y55898036D01*
X33411872Y55898036D02*
X33310857Y55864364D01*
X33310857Y55864364D02*
X33243514Y55797021D01*
X33445544Y55662334D02*
X33344529Y55628662D01*
X33344529Y55628662D02*
X33209842Y55628662D01*
X33209842Y55628662D02*
X33041483Y55729677D01*
X33041483Y55729677D02*
X32805781Y55965380D01*
X32805781Y55965380D02*
X32704766Y56133738D01*
X32704766Y56133738D02*
X32704766Y56268425D01*
X32704766Y56268425D02*
X32738437Y56369441D01*
X32738437Y56369441D02*
X32873124Y56504128D01*
X32873124Y56504128D02*
X32974140Y56537799D01*
X32974140Y56537799D02*
X33108827Y56537799D01*
X33108827Y56537799D02*
X33277185Y56436784D01*
X33277185Y56436784D02*
X33512888Y56201082D01*
X33512888Y56201082D02*
X33613903Y56032723D01*
X33613903Y56032723D02*
X33613903Y55898036D01*
X33613903Y55898036D02*
X33580231Y55797021D01*
X33580231Y55797021D02*
X33445544Y55662334D01*
X33277185Y56908189D02*
X33714918Y57345921D01*
X33714918Y57345921D02*
X33748590Y56840845D01*
X33748590Y56840845D02*
X33849605Y56941860D01*
X33849605Y56941860D02*
X33950620Y56975532D01*
X33950620Y56975532D02*
X34017964Y56975532D01*
X34017964Y56975532D02*
X34118979Y56941860D01*
X34118979Y56941860D02*
X34287338Y56773502D01*
X34287338Y56773502D02*
X34321010Y56672486D01*
X34321010Y56672486D02*
X34321010Y56605143D01*
X34321010Y56605143D02*
X34287338Y56504128D01*
X34287338Y56504128D02*
X34085307Y56302097D01*
X34085307Y56302097D02*
X33984292Y56268425D01*
X33984292Y56268425D02*
X33916949Y56268425D01*
X29531605Y55931708D02*
X29430590Y55898036D01*
X29430590Y55898036D02*
X29295903Y55898036D01*
X29295903Y55898036D02*
X29093872Y55898036D01*
X29093872Y55898036D02*
X28992857Y55864364D01*
X28992857Y55864364D02*
X28925514Y55797021D01*
X29127544Y55662334D02*
X29026529Y55628662D01*
X29026529Y55628662D02*
X28891842Y55628662D01*
X28891842Y55628662D02*
X28723483Y55729677D01*
X28723483Y55729677D02*
X28487781Y55965380D01*
X28487781Y55965380D02*
X28386766Y56133738D01*
X28386766Y56133738D02*
X28386766Y56268425D01*
X28386766Y56268425D02*
X28420437Y56369441D01*
X28420437Y56369441D02*
X28555124Y56504128D01*
X28555124Y56504128D02*
X28656140Y56537799D01*
X28656140Y56537799D02*
X28790827Y56537799D01*
X28790827Y56537799D02*
X28959185Y56436784D01*
X28959185Y56436784D02*
X29194888Y56201082D01*
X29194888Y56201082D02*
X29295903Y56032723D01*
X29295903Y56032723D02*
X29295903Y55898036D01*
X29295903Y55898036D02*
X29262231Y55797021D01*
X29262231Y55797021D02*
X29127544Y55662334D01*
X29060201Y56874517D02*
X29060201Y56941860D01*
X29060201Y56941860D02*
X29093872Y57042876D01*
X29093872Y57042876D02*
X29262231Y57211234D01*
X29262231Y57211234D02*
X29363246Y57244906D01*
X29363246Y57244906D02*
X29430590Y57244906D01*
X29430590Y57244906D02*
X29531605Y57211234D01*
X29531605Y57211234D02*
X29598949Y57143891D01*
X29598949Y57143891D02*
X29666292Y57009204D01*
X29666292Y57009204D02*
X29666292Y56201082D01*
X29666292Y56201082D02*
X30104025Y56638815D01*
X25467605Y55931708D02*
X25366590Y55898036D01*
X25366590Y55898036D02*
X25231903Y55898036D01*
X25231903Y55898036D02*
X25029872Y55898036D01*
X25029872Y55898036D02*
X24928857Y55864364D01*
X24928857Y55864364D02*
X24861514Y55797021D01*
X25063544Y55662334D02*
X24962529Y55628662D01*
X24962529Y55628662D02*
X24827842Y55628662D01*
X24827842Y55628662D02*
X24659483Y55729677D01*
X24659483Y55729677D02*
X24423781Y55965380D01*
X24423781Y55965380D02*
X24322766Y56133738D01*
X24322766Y56133738D02*
X24322766Y56268425D01*
X24322766Y56268425D02*
X24356437Y56369441D01*
X24356437Y56369441D02*
X24491124Y56504128D01*
X24491124Y56504128D02*
X24592140Y56537799D01*
X24592140Y56537799D02*
X24726827Y56537799D01*
X24726827Y56537799D02*
X24895185Y56436784D01*
X24895185Y56436784D02*
X25130888Y56201082D01*
X25130888Y56201082D02*
X25231903Y56032723D01*
X25231903Y56032723D02*
X25231903Y55898036D01*
X25231903Y55898036D02*
X25198231Y55797021D01*
X25198231Y55797021D02*
X25063544Y55662334D01*
X26040025Y56638815D02*
X25635964Y56234754D01*
X25837994Y56436784D02*
X25130888Y57143891D01*
X25130888Y57143891D02*
X25164559Y56975532D01*
X25164559Y56975532D02*
X25164559Y56840845D01*
X25164559Y56840845D02*
X25130888Y56739830D01*
X10284819Y24256667D02*
X10999104Y24256667D01*
X10999104Y24256667D02*
X11141961Y24209048D01*
X11141961Y24209048D02*
X11237200Y24113810D01*
X11237200Y24113810D02*
X11284819Y23970953D01*
X11284819Y23970953D02*
X11284819Y23875715D01*
X10284819Y24637620D02*
X10284819Y25304286D01*
X10284819Y25304286D02*
X11284819Y24875715D01*
X12284619Y63739067D02*
X12998904Y63739067D01*
X12998904Y63739067D02*
X13141761Y63691448D01*
X13141761Y63691448D02*
X13237000Y63596210D01*
X13237000Y63596210D02*
X13284619Y63453353D01*
X13284619Y63453353D02*
X13284619Y63358115D01*
X12379857Y64167639D02*
X12332238Y64215258D01*
X12332238Y64215258D02*
X12284619Y64310496D01*
X12284619Y64310496D02*
X12284619Y64548591D01*
X12284619Y64548591D02*
X12332238Y64643829D01*
X12332238Y64643829D02*
X12379857Y64691448D01*
X12379857Y64691448D02*
X12475095Y64739067D01*
X12475095Y64739067D02*
X12570333Y64739067D01*
X12570333Y64739067D02*
X12713190Y64691448D01*
X12713190Y64691448D02*
X13284619Y64120020D01*
X13284619Y64120020D02*
X13284619Y64739067D01*
X2664819Y28066667D02*
X3379104Y28066667D01*
X3379104Y28066667D02*
X3521961Y28019048D01*
X3521961Y28019048D02*
X3617200Y27923810D01*
X3617200Y27923810D02*
X3664819Y27780953D01*
X3664819Y27780953D02*
X3664819Y27685715D01*
X2664819Y29019048D02*
X2664819Y28542858D01*
X2664819Y28542858D02*
X3141009Y28495239D01*
X3141009Y28495239D02*
X3093390Y28542858D01*
X3093390Y28542858D02*
X3045771Y28638096D01*
X3045771Y28638096D02*
X3045771Y28876191D01*
X3045771Y28876191D02*
X3093390Y28971429D01*
X3093390Y28971429D02*
X3141009Y29019048D01*
X3141009Y29019048D02*
X3236247Y29066667D01*
X3236247Y29066667D02*
X3474342Y29066667D01*
X3474342Y29066667D02*
X3569580Y29019048D01*
X3569580Y29019048D02*
X3617200Y28971429D01*
X3617200Y28971429D02*
X3664819Y28876191D01*
X3664819Y28876191D02*
X3664819Y28638096D01*
X3664819Y28638096D02*
X3617200Y28542858D01*
X3617200Y28542858D02*
X3569580Y28495239D01*
X42884819Y48386667D02*
X43599104Y48386667D01*
X43599104Y48386667D02*
X43741961Y48339048D01*
X43741961Y48339048D02*
X43837200Y48243810D01*
X43837200Y48243810D02*
X43884819Y48100953D01*
X43884819Y48100953D02*
X43884819Y48005715D01*
X42884819Y48767620D02*
X42884819Y49386667D01*
X42884819Y49386667D02*
X43265771Y49053334D01*
X43265771Y49053334D02*
X43265771Y49196191D01*
X43265771Y49196191D02*
X43313390Y49291429D01*
X43313390Y49291429D02*
X43361009Y49339048D01*
X43361009Y49339048D02*
X43456247Y49386667D01*
X43456247Y49386667D02*
X43694342Y49386667D01*
X43694342Y49386667D02*
X43789580Y49339048D01*
X43789580Y49339048D02*
X43837200Y49291429D01*
X43837200Y49291429D02*
X43884819Y49196191D01*
X43884819Y49196191D02*
X43884819Y48910477D01*
X43884819Y48910477D02*
X43837200Y48815239D01*
X43837200Y48815239D02*
X43789580Y48767620D01*
X6820819Y22479096D02*
X7630342Y22479096D01*
X7630342Y22479096D02*
X7725580Y22526715D01*
X7725580Y22526715D02*
X7773200Y22574334D01*
X7773200Y22574334D02*
X7820819Y22669572D01*
X7820819Y22669572D02*
X7820819Y22860048D01*
X7820819Y22860048D02*
X7773200Y22955286D01*
X7773200Y22955286D02*
X7725580Y23002905D01*
X7725580Y23002905D02*
X7630342Y23050524D01*
X7630342Y23050524D02*
X6820819Y23050524D01*
X7820819Y24050524D02*
X7820819Y23479096D01*
X7820819Y23764810D02*
X6820819Y23764810D01*
X6820819Y23764810D02*
X6963676Y23669572D01*
X6963676Y23669572D02*
X7058914Y23574334D01*
X7058914Y23574334D02*
X7106533Y23479096D01*
X30442819Y22606096D02*
X31252342Y22606096D01*
X31252342Y22606096D02*
X31347580Y22653715D01*
X31347580Y22653715D02*
X31395200Y22701334D01*
X31395200Y22701334D02*
X31442819Y22796572D01*
X31442819Y22796572D02*
X31442819Y22987048D01*
X31442819Y22987048D02*
X31395200Y23082286D01*
X31395200Y23082286D02*
X31347580Y23129905D01*
X31347580Y23129905D02*
X31252342Y23177524D01*
X31252342Y23177524D02*
X30442819Y23177524D01*
X30442819Y23558477D02*
X30442819Y24177524D01*
X30442819Y24177524D02*
X30823771Y23844191D01*
X30823771Y23844191D02*
X30823771Y23987048D01*
X30823771Y23987048D02*
X30871390Y24082286D01*
X30871390Y24082286D02*
X30919009Y24129905D01*
X30919009Y24129905D02*
X31014247Y24177524D01*
X31014247Y24177524D02*
X31252342Y24177524D01*
X31252342Y24177524D02*
X31347580Y24129905D01*
X31347580Y24129905D02*
X31395200Y24082286D01*
X31395200Y24082286D02*
X31442819Y23987048D01*
X31442819Y23987048D02*
X31442819Y23701334D01*
X31442819Y23701334D02*
X31395200Y23606096D01*
X31395200Y23606096D02*
X31347580Y23558477D01*
X22482276Y1383381D02*
X22482276Y669096D01*
X22482276Y669096D02*
X22434657Y526239D01*
X22434657Y526239D02*
X22339419Y431000D01*
X22339419Y431000D02*
X22196562Y383381D01*
X22196562Y383381D02*
X22101324Y383381D01*
X23482276Y383381D02*
X22910848Y383381D01*
X23196562Y383381D02*
X23196562Y1383381D01*
X23196562Y1383381D02*
X23101324Y1240524D01*
X23101324Y1240524D02*
X23006086Y1145286D01*
X23006086Y1145286D02*
X22910848Y1097667D01*
X23863229Y1288143D02*
X23910848Y1335762D01*
X23910848Y1335762D02*
X24006086Y1383381D01*
X24006086Y1383381D02*
X24244181Y1383381D01*
X24244181Y1383381D02*
X24339419Y1335762D01*
X24339419Y1335762D02*
X24387038Y1288143D01*
X24387038Y1288143D02*
X24434657Y1192905D01*
X24434657Y1192905D02*
X24434657Y1097667D01*
X24434657Y1097667D02*
X24387038Y954810D01*
X24387038Y954810D02*
X23815610Y383381D01*
X23815610Y383381D02*
X24434657Y383381D01*
X7845466Y1408781D02*
X7845466Y694496D01*
X7845466Y694496D02*
X7797847Y551639D01*
X7797847Y551639D02*
X7702609Y456400D01*
X7702609Y456400D02*
X7559752Y408781D01*
X7559752Y408781D02*
X7464514Y408781D01*
X8369276Y408781D02*
X8559752Y408781D01*
X8559752Y408781D02*
X8654990Y456400D01*
X8654990Y456400D02*
X8702609Y504020D01*
X8702609Y504020D02*
X8797847Y646877D01*
X8797847Y646877D02*
X8845466Y837353D01*
X8845466Y837353D02*
X8845466Y1218305D01*
X8845466Y1218305D02*
X8797847Y1313543D01*
X8797847Y1313543D02*
X8750228Y1361162D01*
X8750228Y1361162D02*
X8654990Y1408781D01*
X8654990Y1408781D02*
X8464514Y1408781D01*
X8464514Y1408781D02*
X8369276Y1361162D01*
X8369276Y1361162D02*
X8321657Y1313543D01*
X8321657Y1313543D02*
X8274038Y1218305D01*
X8274038Y1218305D02*
X8274038Y980210D01*
X8274038Y980210D02*
X8321657Y884972D01*
X8321657Y884972D02*
X8369276Y837353D01*
X8369276Y837353D02*
X8464514Y789734D01*
X8464514Y789734D02*
X8654990Y789734D01*
X8654990Y789734D02*
X8750228Y837353D01*
X8750228Y837353D02*
X8797847Y884972D01*
X8797847Y884972D02*
X8845466Y980210D01*
X27155876Y1357981D02*
X27155876Y643696D01*
X27155876Y643696D02*
X27108257Y500839D01*
X27108257Y500839D02*
X27013019Y405600D01*
X27013019Y405600D02*
X26870162Y357981D01*
X26870162Y357981D02*
X26774924Y357981D01*
X28155876Y357981D02*
X27584448Y357981D01*
X27870162Y357981D02*
X27870162Y1357981D01*
X27870162Y1357981D02*
X27774924Y1215124D01*
X27774924Y1215124D02*
X27679686Y1119886D01*
X27679686Y1119886D02*
X27584448Y1072267D01*
X28774924Y1357981D02*
X28870162Y1357981D01*
X28870162Y1357981D02*
X28965400Y1310362D01*
X28965400Y1310362D02*
X29013019Y1262743D01*
X29013019Y1262743D02*
X29060638Y1167505D01*
X29060638Y1167505D02*
X29108257Y977029D01*
X29108257Y977029D02*
X29108257Y738934D01*
X29108257Y738934D02*
X29060638Y548458D01*
X29060638Y548458D02*
X29013019Y453220D01*
X29013019Y453220D02*
X28965400Y405600D01*
X28965400Y405600D02*
X28870162Y357981D01*
X28870162Y357981D02*
X28774924Y357981D01*
X28774924Y357981D02*
X28679686Y405600D01*
X28679686Y405600D02*
X28632067Y453220D01*
X28632067Y453220D02*
X28584448Y548458D01*
X28584448Y548458D02*
X28536829Y738934D01*
X28536829Y738934D02*
X28536829Y977029D01*
X28536829Y977029D02*
X28584448Y1167505D01*
X28584448Y1167505D02*
X28632067Y1262743D01*
X28632067Y1262743D02*
X28679686Y1310362D01*
X28679686Y1310362D02*
X28774924Y1357981D01*
X1722219Y51362077D02*
X2436504Y51362077D01*
X2436504Y51362077D02*
X2579361Y51314458D01*
X2579361Y51314458D02*
X2674600Y51219220D01*
X2674600Y51219220D02*
X2722219Y51076363D01*
X2722219Y51076363D02*
X2722219Y50981125D01*
X2722219Y52362077D02*
X2722219Y51790649D01*
X2722219Y52076363D02*
X1722219Y52076363D01*
X1722219Y52076363D02*
X1865076Y51981125D01*
X1865076Y51981125D02*
X1960314Y51885887D01*
X1960314Y51885887D02*
X2007933Y51790649D01*
X2722219Y53314458D02*
X2722219Y52743030D01*
X2722219Y53028744D02*
X1722219Y53028744D01*
X1722219Y53028744D02*
X1865076Y52933506D01*
X1865076Y52933506D02*
X1960314Y52838268D01*
X1960314Y52838268D02*
X2007933Y52743030D01*
X32724819Y52196667D02*
X33439104Y52196667D01*
X33439104Y52196667D02*
X33581961Y52149048D01*
X33581961Y52149048D02*
X33677200Y52053810D01*
X33677200Y52053810D02*
X33724819Y51910953D01*
X33724819Y51910953D02*
X33724819Y51815715D01*
X33058152Y53101429D02*
X33724819Y53101429D01*
X32677200Y52863334D02*
X33391485Y52625239D01*
X33391485Y52625239D02*
X33391485Y53244286D01*
X46349104Y37845715D02*
X46349104Y38321905D01*
X46634819Y37750477D02*
X45634819Y38083810D01*
X45634819Y38083810D02*
X46634819Y38417143D01*
X46634819Y39274286D02*
X46634819Y38702858D01*
X46634819Y38988572D02*
X45634819Y38988572D01*
X45634819Y38988572D02*
X45777676Y38893334D01*
X45777676Y38893334D02*
X45872914Y38798096D01*
X45872914Y38798096D02*
X45920533Y38702858D01*
X6085180Y39821905D02*
X5275657Y39821905D01*
X5275657Y39821905D02*
X5180419Y39774286D01*
X5180419Y39774286D02*
X5132800Y39726667D01*
X5132800Y39726667D02*
X5085180Y39631429D01*
X5085180Y39631429D02*
X5085180Y39440953D01*
X5085180Y39440953D02*
X5132800Y39345715D01*
X5132800Y39345715D02*
X5180419Y39298096D01*
X5180419Y39298096D02*
X5275657Y39250477D01*
X5275657Y39250477D02*
X6085180Y39250477D01*
X5132800Y38821905D02*
X5085180Y38679048D01*
X5085180Y38679048D02*
X5085180Y38440953D01*
X5085180Y38440953D02*
X5132800Y38345715D01*
X5132800Y38345715D02*
X5180419Y38298096D01*
X5180419Y38298096D02*
X5275657Y38250477D01*
X5275657Y38250477D02*
X5370895Y38250477D01*
X5370895Y38250477D02*
X5466133Y38298096D01*
X5466133Y38298096D02*
X5513752Y38345715D01*
X5513752Y38345715D02*
X5561371Y38440953D01*
X5561371Y38440953D02*
X5608990Y38631429D01*
X5608990Y38631429D02*
X5656609Y38726667D01*
X5656609Y38726667D02*
X5704228Y38774286D01*
X5704228Y38774286D02*
X5799466Y38821905D01*
X5799466Y38821905D02*
X5894704Y38821905D01*
X5894704Y38821905D02*
X5989942Y38774286D01*
X5989942Y38774286D02*
X6037561Y38726667D01*
X6037561Y38726667D02*
X6085180Y38631429D01*
X6085180Y38631429D02*
X6085180Y38393334D01*
X6085180Y38393334D02*
X6037561Y38250477D01*
X5608990Y37488572D02*
X5561371Y37345715D01*
X5561371Y37345715D02*
X5513752Y37298096D01*
X5513752Y37298096D02*
X5418514Y37250477D01*
X5418514Y37250477D02*
X5275657Y37250477D01*
X5275657Y37250477D02*
X5180419Y37298096D01*
X5180419Y37298096D02*
X5132800Y37345715D01*
X5132800Y37345715D02*
X5085180Y37440953D01*
X5085180Y37440953D02*
X5085180Y37821905D01*
X5085180Y37821905D02*
X6085180Y37821905D01*
X6085180Y37821905D02*
X6085180Y37488572D01*
X6085180Y37488572D02*
X6037561Y37393334D01*
X6037561Y37393334D02*
X5989942Y37345715D01*
X5989942Y37345715D02*
X5894704Y37298096D01*
X5894704Y37298096D02*
X5799466Y37298096D01*
X5799466Y37298096D02*
X5704228Y37345715D01*
X5704228Y37345715D02*
X5656609Y37393334D01*
X5656609Y37393334D02*
X5608990Y37488572D01*
X5608990Y37488572D02*
X5608990Y37821905D01*
X38189819Y22733096D02*
X38999342Y22733096D01*
X38999342Y22733096D02*
X39094580Y22780715D01*
X39094580Y22780715D02*
X39142200Y22828334D01*
X39142200Y22828334D02*
X39189819Y22923572D01*
X39189819Y22923572D02*
X39189819Y23114048D01*
X39189819Y23114048D02*
X39142200Y23209286D01*
X39142200Y23209286D02*
X39094580Y23256905D01*
X39094580Y23256905D02*
X38999342Y23304524D01*
X38999342Y23304524D02*
X38189819Y23304524D01*
X38523152Y24209286D02*
X39189819Y24209286D01*
X38142200Y23971191D02*
X38856485Y23733096D01*
X38856485Y23733096D02*
X38856485Y24352143D01*
X20488819Y63840667D02*
X21203104Y63840667D01*
X21203104Y63840667D02*
X21345961Y63793048D01*
X21345961Y63793048D02*
X21441200Y63697810D01*
X21441200Y63697810D02*
X21488819Y63554953D01*
X21488819Y63554953D02*
X21488819Y63459715D01*
X21488819Y64840667D02*
X21488819Y64269239D01*
X21488819Y64554953D02*
X20488819Y64554953D01*
X20488819Y64554953D02*
X20631676Y64459715D01*
X20631676Y64459715D02*
X20726914Y64364477D01*
X20726914Y64364477D02*
X20774533Y64269239D01*
X28064819Y67396667D02*
X28779104Y67396667D01*
X28779104Y67396667D02*
X28921961Y67349048D01*
X28921961Y67349048D02*
X29017200Y67253810D01*
X29017200Y67253810D02*
X29064819Y67110953D01*
X29064819Y67110953D02*
X29064819Y67015715D01*
X28064819Y68301429D02*
X28064819Y68110953D01*
X28064819Y68110953D02*
X28112438Y68015715D01*
X28112438Y68015715D02*
X28160057Y67968096D01*
X28160057Y67968096D02*
X28302914Y67872858D01*
X28302914Y67872858D02*
X28493390Y67825239D01*
X28493390Y67825239D02*
X28874342Y67825239D01*
X28874342Y67825239D02*
X28969580Y67872858D01*
X28969580Y67872858D02*
X29017200Y67920477D01*
X29017200Y67920477D02*
X29064819Y68015715D01*
X29064819Y68015715D02*
X29064819Y68206191D01*
X29064819Y68206191D02*
X29017200Y68301429D01*
X29017200Y68301429D02*
X28969580Y68349048D01*
X28969580Y68349048D02*
X28874342Y68396667D01*
X28874342Y68396667D02*
X28636247Y68396667D01*
X28636247Y68396667D02*
X28541009Y68349048D01*
X28541009Y68349048D02*
X28493390Y68301429D01*
X28493390Y68301429D02*
X28445771Y68206191D01*
X28445771Y68206191D02*
X28445771Y68015715D01*
X28445771Y68015715D02*
X28493390Y67920477D01*
X28493390Y67920477D02*
X28541009Y67872858D01*
X28541009Y67872858D02*
X28636247Y67825239D01*
X22564819Y20066096D02*
X23374342Y20066096D01*
X23374342Y20066096D02*
X23469580Y20113715D01*
X23469580Y20113715D02*
X23517200Y20161334D01*
X23517200Y20161334D02*
X23564819Y20256572D01*
X23564819Y20256572D02*
X23564819Y20447048D01*
X23564819Y20447048D02*
X23517200Y20542286D01*
X23517200Y20542286D02*
X23469580Y20589905D01*
X23469580Y20589905D02*
X23374342Y20637524D01*
X23374342Y20637524D02*
X22564819Y20637524D01*
X22660057Y21066096D02*
X22612438Y21113715D01*
X22612438Y21113715D02*
X22564819Y21208953D01*
X22564819Y21208953D02*
X22564819Y21447048D01*
X22564819Y21447048D02*
X22612438Y21542286D01*
X22612438Y21542286D02*
X22660057Y21589905D01*
X22660057Y21589905D02*
X22755295Y21637524D01*
X22755295Y21637524D02*
X22850533Y21637524D01*
X22850533Y21637524D02*
X22993390Y21589905D01*
X22993390Y21589905D02*
X23564819Y21018477D01*
X23564819Y21018477D02*
X23564819Y21637524D01*
D11*
X23317200Y15062000D02*
X23317200Y14112000D01*
X24237200Y14112000D02*
X22397200Y14112000D01*
X22397200Y14112000D02*
X22397200Y10272000D01*
X24237200Y10272000D02*
X24237200Y14112000D01*
X22397200Y10272000D02*
X24237200Y10272000D01*
X23317200Y9322000D02*
X23317200Y10272000D01*
X14225000Y64899000D02*
X14225000Y63159000D01*
X12485000Y64899000D02*
X14225000Y64899000D01*
X13985000Y64659000D02*
X13985000Y61859000D01*
X4085000Y64654112D02*
X13985000Y64659000D01*
X13985000Y58259000D02*
X13985000Y55459000D01*
X13985000Y55459000D02*
X11985000Y55459000D01*
X8385000Y55459000D02*
X4185000Y55459000D01*
X39237604Y61582635D02*
X36515243Y58860273D01*
X40651818Y59532025D02*
X40277051Y60430051D01*
X38565853Y57446060D02*
X40651818Y59532025D01*
X37696111Y57849111D02*
X38565853Y57446060D01*
X36515243Y58860273D02*
X36600096Y58732994D01*
X35046604Y61582635D02*
X32324243Y58860273D01*
X36460818Y59532025D02*
X36086051Y60430051D01*
X34374853Y57446060D02*
X36460818Y59532025D01*
X33505111Y57849111D02*
X34374853Y57446060D01*
X32324243Y58860273D02*
X32409096Y58732994D01*
X30855604Y61582635D02*
X28133243Y58860273D01*
X32269818Y59532025D02*
X31895051Y60430051D01*
X30183853Y57446060D02*
X32269818Y59532025D01*
X29314111Y57849111D02*
X30183853Y57446060D01*
X28133243Y58860273D02*
X28218096Y58732994D01*
X26664604Y61582635D02*
X23942243Y58860273D01*
X28078818Y59532025D02*
X27704051Y60430051D01*
X25992853Y57446060D02*
X28078818Y59532025D01*
X25123111Y57849111D02*
X25992853Y57446060D01*
X23942243Y58860273D02*
X24027096Y58732994D01*
X11830000Y27190000D02*
X22110000Y27190000D01*
X11830000Y24590000D02*
X11830000Y27190000D01*
X11830000Y21990000D02*
X11830000Y23320000D01*
X13160000Y21990000D02*
X11830000Y21990000D01*
X14430000Y24590000D02*
X11830000Y24590000D01*
X14430000Y21990000D02*
X14430000Y24590000D01*
X14430000Y21990000D02*
X22110000Y21990000D01*
X22110000Y21990000D02*
X22110000Y27190000D01*
X9290000Y70330000D02*
X17030000Y70330000D01*
X9290000Y67730000D02*
X9290000Y70330000D01*
X9290000Y65130000D02*
X9290000Y66460000D01*
X10620000Y65130000D02*
X9290000Y65130000D01*
X11890000Y67730000D02*
X9290000Y67730000D01*
X11890000Y65130000D02*
X11890000Y67730000D01*
X11890000Y65130000D02*
X17030000Y65130000D01*
X17030000Y65130000D02*
X17030000Y70330000D01*
X4210000Y27070000D02*
X4210000Y28400000D01*
X5540000Y27070000D02*
X4210000Y27070000D01*
X6810000Y29730000D02*
X42430000Y29730000D01*
X6810000Y27070000D02*
X6810000Y29730000D01*
X6810000Y27070000D02*
X42430000Y27070000D01*
X42430000Y27070000D02*
X42430000Y29730000D01*
X4210000Y50050000D02*
X4210000Y47390000D01*
X39830000Y50050000D02*
X4210000Y50050000D01*
X39830000Y50050000D02*
X39830000Y47390000D01*
X39830000Y47390000D02*
X4210000Y47390000D01*
X41100000Y50050000D02*
X42430000Y50050000D01*
X42430000Y50050000D02*
X42430000Y48720000D01*
X6750000Y22110000D02*
X6750000Y4270000D01*
X11890000Y22110000D02*
X6750000Y22110000D01*
X11890000Y22110000D02*
X11890000Y19510000D01*
X11890000Y19510000D02*
X14490000Y19510000D01*
X13160000Y22110000D02*
X14490000Y22110000D01*
X14490000Y22110000D02*
X14490000Y20780000D01*
X14490000Y19510000D02*
X14490000Y4270000D01*
X14490000Y4270000D02*
X6750000Y4270000D01*
X24530000Y22110000D02*
X24530000Y4270000D01*
X29670000Y22110000D02*
X24530000Y22110000D01*
X29670000Y22110000D02*
X29670000Y19510000D01*
X29670000Y19510000D02*
X32270000Y19510000D01*
X30940000Y22110000D02*
X32270000Y22110000D01*
X32270000Y22110000D02*
X32270000Y20780000D01*
X32270000Y19510000D02*
X32270000Y4270000D01*
X32270000Y4270000D02*
X24530000Y4270000D01*
X21987200Y6867200D02*
X23317200Y6867200D01*
X21987200Y5537200D02*
X21987200Y6867200D01*
X21987200Y4267200D02*
X21987200Y1667200D01*
X21987200Y4267200D02*
X24647200Y4267200D01*
X21987200Y1667200D02*
X24647200Y1667200D01*
X24647200Y4267200D02*
X24647200Y1667200D01*
X6750000Y1670000D02*
X6750000Y3000000D01*
X8080000Y1670000D02*
X6750000Y1670000D01*
X9350000Y4330000D02*
X22110000Y4330000D01*
X9350000Y1670000D02*
X9350000Y4330000D01*
X9350000Y1670000D02*
X22110000Y1670000D01*
X22110000Y1670000D02*
X22110000Y4330000D01*
X24530000Y1670000D02*
X24530000Y3000000D01*
X25860000Y1670000D02*
X24530000Y1670000D01*
X27130000Y4330000D02*
X39890000Y4330000D01*
X27130000Y1670000D02*
X27130000Y4330000D01*
X27130000Y1670000D02*
X39890000Y1670000D01*
X39890000Y1670000D02*
X39890000Y4330000D01*
X3267400Y50841600D02*
X3267400Y52171600D01*
X4597400Y50841600D02*
X3267400Y50841600D01*
X5867400Y53501600D02*
X8467400Y53501600D01*
X5867400Y50841600D02*
X5867400Y53501600D01*
X5867400Y50841600D02*
X8467400Y50841600D01*
X8467400Y50841600D02*
X8467400Y53501600D01*
X21990000Y55130000D02*
X21990000Y49930000D01*
X29670000Y55130000D02*
X21990000Y55130000D01*
X29670000Y55130000D02*
X29670000Y52530000D01*
X29670000Y52530000D02*
X32270000Y52530000D01*
X30940000Y55130000D02*
X32270000Y55130000D01*
X32270000Y55130000D02*
X32270000Y53800000D01*
X32270000Y52530000D02*
X32270000Y49930000D01*
X32270000Y49930000D02*
X21990000Y49930000D01*
X-940000Y42500000D02*
X9480000Y42500000D01*
X-940000Y34620000D02*
X-940000Y42500000D01*
X1600000Y47580000D02*
X1600000Y42500000D01*
X1600000Y29540000D02*
X1600000Y34620000D01*
X1600000Y29540000D02*
X45040000Y29540000D01*
X4270000Y44910000D02*
X4270000Y47580000D01*
X4270000Y32210000D02*
X4270000Y29540000D01*
X9480000Y42500000D02*
X9480000Y34620000D01*
X9480000Y34620000D02*
X-940000Y34620000D01*
X39830000Y47580000D02*
X1600000Y47580000D01*
X39830000Y44910000D02*
X4270000Y44910000D01*
X39830000Y44910000D02*
X39830000Y47580000D01*
X39830000Y44910000D02*
X42370000Y44910000D01*
X42370000Y44910000D02*
X42370000Y47580000D01*
X42370000Y32210000D02*
X4270000Y32210000D01*
X42370000Y32210000D02*
X42370000Y29540000D01*
X45040000Y47580000D02*
X42370000Y47580000D01*
X45040000Y29540000D02*
X45040000Y47580000D01*
X32150000Y22110000D02*
X32150000Y4270000D01*
X37290000Y22110000D02*
X32150000Y22110000D01*
X37290000Y22110000D02*
X37290000Y19510000D01*
X37290000Y19510000D02*
X39890000Y19510000D01*
X38560000Y22110000D02*
X39890000Y22110000D01*
X39890000Y22110000D02*
X39890000Y20780000D01*
X39890000Y19510000D02*
X39890000Y4270000D01*
X39890000Y4270000D02*
X32150000Y4270000D01*
X19450000Y70330000D02*
X27190000Y70330000D01*
X19450000Y67730000D02*
X19450000Y70330000D01*
X19450000Y65130000D02*
X19450000Y66460000D01*
X20780000Y65130000D02*
X19450000Y65130000D01*
X22050000Y67730000D02*
X19450000Y67730000D01*
X22050000Y65130000D02*
X22050000Y67730000D01*
X22050000Y65130000D02*
X27190000Y65130000D01*
X27190000Y65130000D02*
X27190000Y70330000D01*
X29610000Y70330000D02*
X39890000Y70330000D01*
X29610000Y67730000D02*
X29610000Y70330000D01*
X29610000Y65130000D02*
X29610000Y66460000D01*
X30940000Y65130000D02*
X29610000Y65130000D01*
X32210000Y67730000D02*
X29610000Y67730000D01*
X32210000Y65130000D02*
X32210000Y67730000D01*
X32210000Y65130000D02*
X39890000Y65130000D01*
X39890000Y65130000D02*
X39890000Y70330000D01*
X14370000Y22110000D02*
X14370000Y4270000D01*
X19510000Y22110000D02*
X14370000Y22110000D01*
X19510000Y22110000D02*
X19510000Y19510000D01*
X19510000Y19510000D02*
X22110000Y19510000D01*
X20780000Y22110000D02*
X22110000Y22110000D01*
X22110000Y22110000D02*
X22110000Y20780000D01*
X22110000Y19510000D02*
X22110000Y4270000D01*
X22110000Y4270000D02*
X14370000Y4270000D01*
M02*
