M48
; DRILL file {KiCad 8.0.8} date 2025-04-14T16:09:36+0900
; FORMAT={-:-/ absolute / metric / decimal}
; #@! TF.CreationDate,2025-04-14T16:09:36+09:00
; #@! TF.GenerationSoftware,Kicad,Pcbnew,8.0.8
; #@! TF.FileFunction,MixedPlating,1,2
FMAT,2
METRIC
; #@! TA.AperFunction,Plated,PTH,ComponentDrill
T1C0.800
; #@! TA.AperFunction,Plated,PTH,ComponentDrill
T2C1.000
; #@! TA.AperFunction,NonPlated,NPTH,ComponentDrill
T3C3.200
%
G90
G05
T1
X23.317Y16.002
X23.317Y8.382
X24.112Y57.828
X25.908Y59.624
X27.704Y61.42
X28.303Y57.828
X30.099Y59.624
X31.895Y61.42
X32.494Y57.828
X34.29Y59.624
X36.086Y61.42
X36.685Y57.828
X38.481Y59.624
X40.277Y61.42
T2
X4.597Y52.172
X5.54Y48.72
X5.54Y46.18
X5.54Y30.94
X5.54Y28.4
X7.137Y52.172
X8.08Y48.72
X8.08Y46.18
X8.08Y30.94
X8.08Y28.4
X8.08Y20.78
X8.08Y5.54
X8.08Y3.0
X10.62Y69.0
X10.62Y66.46
X10.62Y48.72
X10.62Y46.18
X10.62Y30.94
X10.62Y28.4
X10.62Y20.78
X10.62Y5.54
X10.62Y3.0
X13.16Y69.0
X13.16Y66.46
X13.16Y48.72
X13.16Y46.18
X13.16Y30.94
X13.16Y28.4
X13.16Y25.86
X13.16Y23.32
X13.16Y20.78
X13.16Y5.54
X13.16Y3.0
X15.7Y69.0
X15.7Y66.46
X15.7Y48.72
X15.7Y46.18
X15.7Y30.94
X15.7Y28.4
X15.7Y25.86
X15.7Y23.32
X15.7Y20.78
X15.7Y5.54
X15.7Y3.0
X18.24Y48.72
X18.24Y46.18
X18.24Y30.94
X18.24Y28.4
X18.24Y25.86
X18.24Y23.32
X18.24Y20.78
X18.24Y5.54
X18.24Y3.0
X20.78Y69.0
X20.78Y66.46
X20.78Y48.72
X20.78Y46.18
X20.78Y30.94
X20.78Y28.4
X20.78Y25.86
X20.78Y23.32
X20.78Y20.78
X20.78Y5.54
X20.78Y3.0
X23.317Y5.537
X23.317Y2.997
X23.32Y69.0
X23.32Y66.46
X23.32Y53.8
X23.32Y51.26
X23.32Y48.72
X23.32Y46.18
X23.32Y30.94
X23.32Y28.4
X25.86Y69.0
X25.86Y66.46
X25.86Y53.8
X25.86Y51.26
X25.86Y48.72
X25.86Y46.18
X25.86Y30.94
X25.86Y28.4
X25.86Y20.78
X25.86Y5.54
X25.86Y3.0
X28.4Y53.8
X28.4Y51.26
X28.4Y48.72
X28.4Y46.18
X28.4Y30.94
X28.4Y28.4
X28.4Y20.78
X28.4Y5.54
X28.4Y3.0
X30.94Y69.0
X30.94Y66.46
X30.94Y53.8
X30.94Y51.26
X30.94Y48.72
X30.94Y46.18
X30.94Y30.94
X30.94Y28.4
X30.94Y20.78
X30.94Y5.54
X30.94Y3.0
X33.48Y69.0
X33.48Y66.46
X33.48Y48.72
X33.48Y46.18
X33.48Y30.94
X33.48Y28.4
X33.48Y20.78
X33.48Y5.54
X33.48Y3.0
X36.02Y69.0
X36.02Y66.46
X36.02Y48.72
X36.02Y46.18
X36.02Y30.94
X36.02Y28.4
X36.02Y20.78
X36.02Y5.54
X36.02Y3.0
X38.56Y69.0
X38.56Y66.46
X38.56Y48.72
X38.56Y46.18
X38.56Y30.94
X38.56Y28.4
X38.56Y20.78
X38.56Y5.54
X38.56Y3.0
X41.1Y48.72
X41.1Y46.18
X41.1Y30.94
X41.1Y28.4
T3
X3.0Y69.0
X3.0Y3.0
X44.0Y69.0
X44.0Y3.0
T2
G00X7.185Y60.359
M15
G01X7.185Y59.759
M16
G05
G00X10.485Y55.359
M15
G01X9.885Y55.359
M16
G05
G00X13.185Y60.359
M15
G01X13.185Y59.759
M16
G05
M30
